<?xml version="1.0" standalone="no"?>
<!DOCTYPE svg PUBLIC "-//W3C//DTD SVG 20010904//EN"
 "http://www.w3.org/TR/2001/REC-SVG-20010904/DTD/svg10.dtd">
<svg version="1.0" xmlns="http://www.w3.org/2000/svg"
 width="504.000000pt" height="65.000000pt" viewBox="0 0 504.000000 65.000000"
 preserveAspectRatio="xMidYMid meet">

<g transform="translate(0.000000,65.000000) scale(0.100000,-0.100000)"
fill="#000000" stroke="none">
<path d="M0 370 l0 -279 36 24 c54 37 204 79 204 57 0 -6 -23 -15 -52 -21 -65
-14 -169 -61 -162 -72 15 -25 157 2 242 45 69 35 102 69 102 105 0 38 -31 55
-173 96 -158 46 -180 79 -106 160 49 53 139 110 224 142 l60 22 -187 0 -188 1
0 -280z"/>
<path d="M468 638 c16 -16 15 -53 -2 -86 -16 -31 -110 -122 -126 -122 -19 0
-11 11 40 57 54 49 80 89 80 124 0 61 -234 -26 -337 -126 -29 -28 -53 -59 -53
-68 0 -25 40 -46 152 -78 112 -33 140 -47 163 -83 40 -60 -64 -151 -220 -192
-62 -17 -137 -18 -153 -2 -9 9 -12 4 -12 -25 l0 -37 824 0 c810 0 824 0 819
19 -4 15 14 35 81 88 l87 67 -37 13 c-21 7 -45 20 -53 27 -12 11 -32 12 -81 7
-52 -5 -70 -12 -93 -34 -25 -26 -83 -57 -106 -57 -21 0 -42 33 -36 57 l6 24
-58 -29 c-83 -42 -156 -64 -200 -60 -37 3 -38 4 -38 41 0 20 -1 37 -3 37 -1 0
-20 -11 -41 -25 -83 -52 -125 -39 -96 30 16 39 20 77 9 88 -11 11 -60 -21
-131 -83 -72 -64 -88 -72 -78 -38 6 18 4 20 -11 13 -61 -24 -106 -36 -126 -33
-20 3 -23 9 -23 45 0 45 -11 46 -49 4 -30 -33 -85 -64 -102 -57 -51 19 68 188
142 202 39 7 74 -3 74 -21 0 -10 -7 -11 -34 -3 -29 9 -39 8 -69 -11 -51 -31
-119 -141 -88 -141 11 0 116 86 145 118 29 33 38 16 16 -28 -27 -52 -27 -90 0
-90 35 0 146 56 166 84 41 58 53 71 59 64 3 -3 -4 -23 -17 -45 -43 -67 -42
-69 4 -26 74 67 141 93 154 58 3 -8 -1 -36 -10 -62 -23 -67 -21 -77 12 -68 64
16 122 66 168 146 25 44 50 81 55 85 30 18 -5 24 -141 24 -82 0 -150 4 -150 8
0 8 165 22 275 22 45 1 52 4 75 35 14 19 31 35 38 35 15 0 9 -14 -20 -46 l-19
-21 71 -7 c38 -4 70 -11 70 -17 0 -5 -36 -9 -80 -9 l-80 0 -44 -68 c-55 -85
-106 -184 -106 -207 0 -29 84 -14 194 36 88 39 100 48 110 78 22 68 113 99
158 53 20 -19 21 -26 11 -52 l-11 -30 54 0 c47 0 54 3 54 19 0 24 63 77 108
92 28 9 37 8 49 -4 13 -13 13 -18 0 -43 -20 -38 -53 -68 -67 -59 -6 4 1 17 20
35 27 26 41 60 23 60 -5 0 -32 -14 -60 -30 -76 -44 -70 -76 21 -110 39 -15 43
-14 121 17 44 18 85 33 90 33 6 0 44 59 85 131 74 130 94 157 103 142 3 -5
-24 -56 -60 -113 -78 -127 -116 -200 -104 -200 5 0 15 8 22 17 18 22 99 73
116 73 9 0 13 -14 13 -41 0 -85 41 -101 124 -48 47 29 66 33 51 9 -11 -18
-106 -60 -136 -60 -35 0 -50 20 -56 75 -5 41 -7 44 -26 34 -11 -6 -49 -38 -84
-71 -43 -40 -68 -57 -75 -50 -6 6 -4 20 6 40 9 17 16 33 16 36 0 6 -99 -27
-128 -43 -11 -6 -22 -23 -25 -39 -7 -33 -74 -88 -148 -122 l-44 -20 1693 0
1692 0 0 116 0 116 -37 -22 c-53 -31 -179 -70 -229 -70 -43 0 -74 19 -74 45 0
10 -17 5 -58 -16 -84 -44 -109 -29 -77 48 46 109 -7 103 -137 -16 -30 -28 -59
-51 -63 -51 -4 0 -4 11 -1 25 l7 26 -41 -21 c-22 -11 -60 -23 -84 -26 -38 -6
-45 -4 -50 14 -4 11 -4 33 0 48 7 26 3 24 -55 -24 -69 -58 -101 -66 -101 -28
0 25 -1 25 -35 10 -77 -32 -115 -13 -115 60 0 19 -4 37 -9 41 -9 5 -141 -101
-156 -125 -13 -21 -27 -9 -22 19 l6 28 -60 -24 c-33 -13 -72 -23 -87 -21 -25
3 -27 7 -26 46 1 37 -1 41 -15 29 -9 -7 -36 -30 -60 -50 -53 -44 -81 -48 -81
-12 0 29 -5 30 -40 10 -32 -18 -84 -19 -99 -1 -6 7 -14 34 -17 59 -8 56 -14
55 -109 -35 -80 -74 -101 -69 -59 13 38 76 174 308 184 314 27 16 13 -23 -34
-96 -77 -122 -129 -219 -118 -219 5 0 16 8 23 17 18 22 99 73 116 73 9 0 13
-14 13 -41 0 -22 5 -49 10 -60 24 -45 115 -6 188 80 50 59 105 82 148 63 14
-7 22 -17 19 -22 -4 -7 -12 -7 -25 0 -32 17 -58 11 -95 -21 -37 -33 -92 -116
-82 -125 10 -10 51 19 115 79 34 33 64 58 67 55 3 -3 -4 -28 -16 -56 -36 -87
-14 -101 86 -53 72 34 78 40 148 162 70 123 100 169 110 169 15 0 5 -23 -57
-123 -35 -56 -76 -126 -90 -155 l-27 -53 55 45 c87 71 116 72 116 6 0 -54 8
-70 36 -70 41 0 99 36 143 88 60 73 140 104 171 67 18 -22 7 -28 -24 -14 -38
18 -88 -8 -129 -67 -75 -107 -48 -113 58 -13 42 40 78 69 81 66 4 -3 -4 -31
-17 -62 -17 -42 -20 -58 -11 -67 26 -26 171 41 196 91 16 30 44 57 51 49 3 -2
-9 -26 -25 -51 l-30 -47 66 50 c76 58 124 68 124 25 0 -14 -5 -45 -12 -70 -7
-24 -9 -48 -4 -52 11 -11 106 42 165 92 84 72 177 96 169 43 -4 -29 -69 -73
-138 -95 -68 -21 -66 -19 -50 -38 7 -8 29 -15 49 -15 41 0 153 35 219 69 l42
21 0 200 0 200 -997 0 c-775 0 -994 -3 -985 -12 20 -20 13 -63 -16 -104 -45
-62 -122 -124 -122 -98 0 3 22 25 48 49 84 76 105 145 44 145 -102 0 -352
-150 -352 -211 0 -24 34 -47 98 -64 28 -8 76 -22 106 -30 150 -42 154 -136 9
-212 -135 -72 -283 -85 -283 -26 0 26 208 108 227 90 10 -11 0 -16 -58 -31
-74 -20 -151 -55 -144 -67 15 -24 140 -1 237 43 102 48 134 108 78 149 -14 11
-72 32 -129 48 -111 31 -154 55 -159 90 -9 61 122 167 273 222 49 18 18 18
-1204 19 -976 0 -1252 -3 -1243 -12z"/>
<path d="M1492 310 c-24 -15 -32 -27 -30 -43 3 -20 9 -22 58 -22 l55 0 3 34
c5 53 -29 66 -86 31z"/>
<path d="M4870 310 c-41 -11 -83 -36 -109 -64 l-25 -27 41 15 c56 20 97 42
113 61 16 20 11 24 -20 15z"/>
<path d="M1432 201 c-19 -55 16 -58 88 -8 20 14 19 15 -24 26 -25 6 -47 11
-49 11 -3 0 -10 -13 -15 -29z"/>
<path d="M1770 118 c-30 -21 -66 -50 -80 -65 -24 -25 -23 -25 37 7 63 33 108
72 102 87 -2 5 -29 -8 -59 -29z"/>
</g>
</svg>
